<svg xmlns="http://www.w3.org/2000/svg" width="24" height="24" viewBox="0 0 24 24" fill="none">
    <g id="phone">
        <path d="M10.554 6.24003L7.17099 2.33503C6.78099 1.88503 6.06599 1.88703 5.61299 2.34103L2.83099 5.12803C2.00299 5.95703 1.76599 7.18803 2.24499 8.17503C5.10661 14.1 9.88503 18.8851 15.806 21.755C16.792 22.234 18.022 21.997 18.85 21.168L21.658 18.355C22.113 17.9 22.114 17.181 21.66 16.791L17.74 13.426C17.33 13.074 16.693 13.12 16.282 13.532L14.918 14.898C14.8482 14.9712 14.7562 15.0195 14.6563 15.0354C14.5564 15.0513 14.4541 15.0339 14.365 14.986C12.1354 13.7021 10.286 11.8503 9.00499 9.61903C8.95702 9.52978 8.93964 9.42726 8.95554 9.32719C8.97144 9.22711 9.01972 9.13502 9.09299 9.06503L10.453 7.70403C10.865 7.29003 10.91 6.65003 10.554 6.23903V6.24003Z"
              stroke="#512689" stroke-width="2" stroke-linecap="round" stroke-linejoin="round"/>
    </g>
    <g id="mail">
        <path d="M21 4.5H3C2.60218 4.5 2.22064 4.65804 1.93934 4.93934C1.65804 5.22064 1.5 5.60218 1.5 6V18C1.5 18.3978 1.65804 18.7794 1.93934 19.0607C2.22064 19.342 2.60218 19.5 3 19.5H21C21.3978 19.5 21.7794 19.342 22.0607 19.0607C22.342 18.7794 22.5 18.3978 22.5 18V6C22.5 5.60218 22.342 5.22064 22.0607 4.93934C21.7794 4.65804 21.3978 4.5 21 4.5ZM19.35 6L12 11.085L4.65 6H19.35ZM3 18V6.6825L11.5725 12.615C11.698 12.7021 11.8472 12.7488 12 12.7488C12.1528 12.7488 12.302 12.7021 12.4275 12.615L21 6.6825V18H3Z"
              fill="#512689"/>
    </g>
    <g id="dislike">
        <path d="M4.85 1C2.72375 1 1 2.72173 1 4.84548C1 8.69096 5.55 12.1869 8 13C10.45 12.1869 15 8.69096 15 4.84548C15 2.72173 13.2762 1 11.15 1C9.848 1 8.6965 1.64569 8 2.63398C7.64499 2.1289 7.17336 1.71669 6.62504 1.43226C6.07672 1.14784 5.46785 0.999565 4.85 1Z"
              stroke="#151317" stroke-linecap="round" stroke-linejoin="round"/>
    </g>
    <g id="exit">
        <path d="M18.79 24.29C19.18 24.68 19.81 24.68 20.2 24.29L23.79 20.7C23.8827 20.6075 23.9563 20.4976 24.0064 20.3766C24.0566 20.2557 24.0824 20.126 24.0824 19.995C24.0824 19.864 24.0566 19.7343 24.0064 19.6134C23.9563 19.4924 23.8827 19.3825 23.79 19.29L20.2 15.7C20.013 15.513 19.7594 15.408 19.495 15.408C19.2306 15.408 18.977 15.513 18.79 15.7C18.603 15.887 18.498 16.1406 18.498 16.405C18.498 16.6694 18.603 16.923 18.79 17.11L20.67 19H12C11.45 19 11 19.45 11 20C11 20.55 11.45 21 12 21H20.67L18.79 22.88C18.4 23.27 18.41 23.91 18.79 24.29ZM27 11H13C12.4696 11 11.9609 11.2107 11.5858 11.5858C11.2107 11.9609 11 12.4696 11 13V16C11 16.55 11.45 17 12 17C12.55 17 13 16.55 13 16V14C13 13.45 13.45 13 14 13H26C26.55 13 27 13.45 27 14V26C27 26.55 26.55 27 26 27H14C13.45 27 13 26.55 13 26V24C13 23.45 12.55 23 12 23C11.45 23 11 23.45 11 24V27C11 28.1 11.9 29 13 29H27C28.1 29 29 28.1 29 27V13C29 11.9 28.1 11 27 11Z"
              fill="#F8F8F8"/>

    </g>
    <g id="back">
        <path d="M22.8375 27.0013C22.6881 27.0018 22.5405 26.9688 22.4055 26.9048C22.2705 26.8407 22.1516 26.7473 22.0575 26.6313L17.2275 20.6313C17.0804 20.4523 17 20.2279 17 19.9963C17 19.7646 17.0804 19.5402 17.2275 19.3613L22.2275 13.3613C22.3972 13.157 22.6411 13.0286 22.9056 13.0042C23.17 12.9799 23.4333 13.0615 23.6375 13.2313C23.8417 13.401 23.9701 13.6449 23.9945 13.9093C24.0189 14.1738 23.9372 14.437 23.7675 14.6413L19.2975 20.0013L23.6175 25.3613C23.7398 25.508 23.8174 25.6868 23.8413 25.8763C23.8652 26.0659 23.8343 26.2583 23.7522 26.4308C23.6702 26.6034 23.5404 26.7488 23.3783 26.8499C23.2162 26.9509 23.0285 27.0035 22.8375 27.0013Z"
              fill="#F8F8F8"/>
    </g>
    <g id="eye">
        <path d="M18.225 9.58331C17.6916 8.65831 14.7583 4.01664 9.77497 4.16664C5.16664 4.28331 2.49998 8.33331 1.77498 9.58331C1.70184 9.70999 1.66333 9.85369 1.66333 9.99997C1.66333 10.1463 1.70184 10.29 1.77498 10.4166C2.29998 11.325 5.10831 15.8333 10.0166 15.8333H10.225C14.8333 15.7166 17.5083 11.6666 18.225 10.4166C18.2981 10.29 18.3366 10.1463 18.3366 9.99997C18.3366 9.85369 18.2981 9.70999 18.225 9.58331ZM10.1833 14.1666C6.59164 14.25 4.24997 11.175 3.51664 9.99997C4.34998 8.65831 6.52498 5.91664 9.85831 5.83331C13.4333 5.74164 15.7833 8.82497 16.525 9.99997C15.6666 11.3416 13.5166 14.0833 10.1833 14.1666Z"
              fill="#808185"/>
        <path d="M10 7.08337C9.42318 7.08337 8.85927 7.25443 8.37963 7.57492C7.89999 7.89541 7.52615 8.35093 7.30539 8.88388C7.08464 9.41683 7.02688 10.0033 7.13942 10.5691C7.25196 11.1348 7.52974 11.6545 7.93765 12.0624C8.34555 12.4703 8.86525 12.7481 9.43103 12.8607C9.99681 12.9732 10.5833 12.9154 11.1162 12.6947C11.6492 12.4739 12.1047 12.1001 12.4252 11.6205C12.7456 11.1408 12.9167 10.5769 12.9167 10C12.9167 9.22649 12.6094 8.48463 12.0624 7.93765C11.5155 7.39066 10.7736 7.08337 10 7.08337ZM10 11.25C9.75282 11.25 9.51114 11.1767 9.30558 11.0394C9.10002 10.902 8.9398 10.7068 8.84519 10.4784C8.75058 10.25 8.72583 9.99865 8.77406 9.75618C8.82229 9.5137 8.94134 9.29097 9.11616 9.11616C9.29097 8.94134 9.5137 8.82229 9.75618 8.77406C9.99866 8.72583 10.25 8.75058 10.4784 8.84519C10.7068 8.9398 10.902 9.10002 11.0394 9.30558C11.1767 9.51114 11.25 9.75281 11.25 10C11.25 10.3316 11.1183 10.6495 10.8839 10.8839C10.6495 11.1183 10.3316 11.25 10 11.25Z"
              fill="#808185"/>
    </g>
    <g id="notEye">
        <path d="M10.7302 5.07319C11.1448 5.02485 11.5684 5 11.9999 5C16.6639 5 20.3998 7.90264 21.9999 12C21.6053 13.0104 21.0809 13.9482 20.4446 14.7877M6.51956 6.51944C4.47949 7.76406 2.90105 9.69259 1.99994 12C3.60008 16.0974 7.33597 19 11.9999 19C14.0375 19 15.8979 18.446 17.4805 17.4804M9.87871 9.87859C9.33576 10.4215 8.99994 11.1715 8.99994 12C8.99994 13.6569 10.3431 15 11.9999 15C12.8284 15 13.5785 14.6642 14.1214 14.1212"
              stroke="#808185" stroke-width="1.5" stroke-linecap="round" stroke-linejoin="round"/>
        <path d="M4 4L20 20" stroke="#808185" stroke-width="1.5" stroke-linecap="round"/>
    </g>
</svg>